<?xml version="1.0" standalone="no"?><!DOCTYPE svg PUBLIC "-//W3C//DTD SVG 1.1//EN" "http://www.w3.org/Graphics/SVG/1.1/DTD/svg11.dtd"><svg t="1709863012797" class="icon" viewBox="0 0 1024 1024" version="1.1" xmlns="http://www.w3.org/2000/svg" p-id="6286" xmlns:xlink="http://www.w3.org/1999/xlink" width="200" height="200"><path d="M327.111111 398.222222a128 128 0 0 1 127.203556 113.777778H910.222222a56.888889 56.888889 0 0 1 56.888889 56.888889v170.666667a142.222222 142.222222 0 0 1-142.222222 142.222222H199.111111a142.222222 142.222222 0 0 1-142.222222-142.222222v-170.666667a56.888889 56.888889 0 0 1 56.888889-56.888889h85.333333v-85.333333a28.444444 28.444444 0 0 1 28.444445-28.444445h99.555555zM910.222222 568.888889H113.777778v170.666667a85.333333 85.333333 0 0 0 80.327111 85.191111L199.111111 824.888889h625.777778a85.333333 85.333333 0 0 0 85.191111-80.327111L910.222222 739.555556v-170.666667z m-186.083555 72.561778c28.842667 23.153778 55.267556 34.702222 79.274666 34.702222 12.515556 0 25.201778-2.844444 38.257778-8.732445a28.444444 28.444444 0 1 1 23.324445 51.882667 149.162667 149.162667 0 0 1-61.582223 13.738667c-32.312889 0-63.943111-10.894222-94.634666-32l-2.702223-1.905778-2.645333 1.905778c-28.359111 19.484444-57.457778 30.264889-87.210667 31.800889l-7.424 0.199111c-32.312889 0-63.943111-10.894222-94.663111-32l-2.673777-1.905778-2.645334 1.905778c-28.359111 19.484444-57.486222 30.264889-87.210666 31.800889l-7.452445 0.199111c-32.284444 0-63.914667-10.894222-94.634667-32l-2.673777-1.905778-2.673778 1.905778c-28.330667 19.484444-57.457778 30.264889-87.182222 31.800889l-7.452445 0.199111a148.764444 148.764444 0 0 1-60.330666-13.169778 28.444444 28.444444 0 1 1 22.926222-52.053333c12.743111 5.603556 25.144889 8.334222 37.404444 8.334222 24.974222 0 49.493333-9.443556 73.472-28.330667l5.973334-4.920889a28.444444 28.444444 0 0 1 36.494222-0.455111c27.562667 22.471111 53.788444 33.706667 78.677333 33.706667 23.182222 0 47.502222-9.728 72.96-29.155556l6.4-5.063111a28.444444 28.444444 0 0 1 36.010667-0.056889c28.017778 22.840889 54.442667 34.275556 79.274666 34.275556 22.983111 0 47.36-9.813333 73.102223-29.411556l6.428444-5.12a28.444444 28.444444 0 0 1 35.84-0.170666zM327.111111 455.111111H256v56.888889h140.8l-0.910222-3.982222a71.168 71.168 0 0 0-64.113778-52.764445L327.111111 455.111111z m363.861333-273.379555l1.848889 2.759111 19.825778 32.995555a85.333333 85.333333 0 0 1-9.016889 100.209778l-3.811555 4.039111-11.264 11.264a48.839111 48.839111 0 0 0-9.443556 55.751111l2.104889 3.925334 11.605333 19.342222a28.444444 28.444444 0 0 1-46.904889 32.028444l-1.848888-2.759111-11.662223-19.342222a105.728 105.728 0 0 1 11.776-124.785778l4.152889-4.380444 11.264-11.264a28.444444 28.444444 0 0 0 5.888-31.630223l-1.621333-3.128888-19.797333-32.995556a28.444444 28.444444 0 0 1 46.904888-32.028444z m128 0l1.848889 2.759111 19.825778 32.995555a85.333333 85.333333 0 0 1-9.016889 100.209778l-3.811555 4.039111-11.264 11.264a48.839111 48.839111 0 0 0-9.443556 55.751111l2.104889 3.925334 11.605333 19.342222a28.444444 28.444444 0 0 1-46.904889 32.028444l-1.848888-2.759111-11.662223-19.342222a105.728 105.728 0 0 1 11.776-124.785778l4.152889-4.380444 11.264-11.264a28.444444 28.444444 0 0 0 5.888-31.630223l-1.621333-3.128888-19.797333-32.995556a28.444444 28.444444 0 0 1 46.904888-32.028444zM298.666667 170.666667a99.555556 99.555556 0 1 1 0 199.111111 99.555556 99.555556 0 0 1 0-199.111111z m0 56.888889a42.666667 42.666667 0 1 0 0 85.333333 42.666667 42.666667 0 0 0 0-85.333333z" fill="#333333" p-id="6287"></path></svg>